<svg width="127" height="20" viewBox="0 0 127 20" fill="none" xmlns="http://www.w3.org/2000/svg">
<g id="Texto">
<g id="AluraGeek">
<path d="M79.0805 17C77.664 18.4167 76.014 19.125 74.1308 19.125C72.9642 19.125 71.8643 18.8917 70.831 18.425C69.8144 17.9584 68.9228 17.3167 68.1562 16.5C67.4062 15.6834 66.8062 14.725 66.3563 13.625C65.923 12.5084 65.7063 11.3084 65.7063 10.025C65.7063 8.80837 65.923 7.6667 66.3563 6.60003C66.8062 5.5167 67.4145 4.57503 68.1812 3.77503C68.9644 2.95836 69.8811 2.3167 70.931 1.85003C71.9809 1.3667 73.1225 1.12503 74.3558 1.12503C76.0224 1.12503 77.4473 1.47503 78.6306 2.17503C79.8305 2.87503 80.7305 3.8167 81.3304 5.00003L78.7556 6.90003C78.3056 6.0167 77.6723 5.3417 76.8557 4.87503C76.0557 4.40836 75.1808 4.17503 74.2308 4.17503C73.4809 4.17503 72.7892 4.33336 72.1559 4.65003C71.5393 4.9667 71.006 5.40003 70.556 5.95003C70.1227 6.50003 69.7811 7.13337 69.5311 7.85003C69.2978 8.5667 69.1811 9.32503 69.1811 10.125C69.1811 10.9584 69.3144 11.7417 69.5811 12.475C69.8477 13.1917 70.2144 13.8167 70.681 14.35C71.1477 14.8834 71.6976 15.3084 72.3309 15.625C72.9809 15.925 73.6809 16.075 74.4308 16.075C76.1474 16.075 77.6973 15.2667 79.0805 13.65V12.4H75.5057V9.87503H81.9304V19H79.0805V17Z" fill="#464646"/>
<path d="M90.6201 19.25C89.5702 19.25 88.6202 19.075 87.7703 18.725C86.9203 18.3584 86.1954 17.8667 85.5954 17.25C84.9954 16.6334 84.5288 15.9167 84.1955 15.1C83.8788 14.2834 83.7205 13.425 83.7205 12.525C83.7205 11.5917 83.8788 10.7167 84.1955 9.90003C84.5121 9.0667 84.9704 8.3417 85.5704 7.72503C86.1704 7.0917 86.8953 6.5917 87.7453 6.22503C88.6119 5.85836 89.5785 5.67503 90.6451 5.67503C91.7117 5.67503 92.6617 5.85836 93.495 6.22503C94.3449 6.5917 95.0616 7.08337 95.6449 7.70003C96.2448 8.3167 96.6948 9.03337 96.9948 9.85003C97.3114 10.6667 97.4697 11.5167 97.4697 12.4C97.4697 12.6167 97.4614 12.825 97.4447 13.025C97.4447 13.225 97.4281 13.3917 97.3948 13.525H87.2703C87.3203 14.0417 87.4453 14.5 87.6453 14.9C87.8453 15.3 88.1036 15.6417 88.4203 15.925C88.7369 16.2084 89.0952 16.425 89.4952 16.575C89.8952 16.725 90.3118 16.8 90.7451 16.8C91.4118 16.8 92.0367 16.6417 92.62 16.325C93.22 15.9917 93.6283 15.5584 93.845 15.025L96.7198 15.825C96.2365 16.825 95.4615 17.65 94.3949 18.3C93.345 18.9334 92.0867 19.25 90.6201 19.25ZM94.0199 11.35C93.9366 10.3667 93.57 9.58337 92.92 9.00003C92.2867 8.40003 91.5117 8.10003 90.5951 8.10003C90.1452 8.10003 89.7202 8.18337 89.3202 8.35003C88.9369 8.50003 88.5952 8.7167 88.2953 9.00003C87.9953 9.28337 87.7453 9.62503 87.5453 10.025C87.362 10.425 87.2537 10.8667 87.2203 11.35H94.0199Z" fill="#464646"/>
<path d="M105.585 19.25C104.535 19.25 103.585 19.075 102.735 18.725C101.885 18.3584 101.16 17.8667 100.56 17.25C99.9604 16.6334 99.4938 15.9167 99.1605 15.1C98.8438 14.2834 98.6855 13.425 98.6855 12.525C98.6855 11.5917 98.8438 10.7167 99.1605 9.90003C99.4771 9.0667 99.9354 8.3417 100.535 7.72503C101.135 7.0917 101.86 6.5917 102.71 6.22503C103.577 5.85836 104.543 5.67503 105.61 5.67503C106.677 5.67503 107.627 5.85836 108.46 6.22503C109.31 6.5917 110.027 7.08337 110.61 7.70003C111.21 8.3167 111.66 9.03337 111.96 9.85003C112.276 10.6667 112.435 11.5167 112.435 12.4C112.435 12.6167 112.426 12.825 112.41 13.025C112.41 13.225 112.393 13.3917 112.36 13.525H102.235C102.285 14.0417 102.41 14.5 102.61 14.9C102.81 15.3 103.069 15.6417 103.385 15.925C103.702 16.2084 104.06 16.425 104.46 16.575C104.86 16.725 105.277 16.8 105.71 16.8C106.377 16.8 107.002 16.6417 107.585 16.325C108.185 15.9917 108.593 15.5584 108.81 15.025L111.685 15.825C111.201 16.825 110.427 17.65 109.36 18.3C108.31 18.9334 107.052 19.25 105.585 19.25ZM108.985 11.35C108.902 10.3667 108.535 9.58337 107.885 9.00003C107.252 8.40003 106.477 8.10003 105.56 8.10003C105.11 8.10003 104.685 8.18337 104.285 8.35003C103.902 8.50003 103.56 8.7167 103.26 9.00003C102.96 9.28337 102.71 9.62503 102.51 10.025C102.327 10.425 102.219 10.8667 102.185 11.35H108.985Z" fill="#464646"/>
<path d="M123.425 19L119.625 13.325L117.825 15.1V19H114.475V0.750031H117.825V11.825L123.075 5.92503H126.65L121.775 11.475L127 19H123.425Z" fill="#464646"/>
</g>
<g id="AluraGeek_2">
<path d="M7.77169 1.25003H10.8215L17.5711 19H14.0213L12.3714 14.575H6.17178L4.54687 19H0.99707L7.77169 1.25003ZM11.7465 12.15L9.2966 5.17503L6.74675 12.15H11.7465Z" fill="#2A7AE4"/>
<path d="M19.1679 0.750031H22.5177V14.8C22.5177 15.2834 22.6344 15.6584 22.8677 15.925C23.101 16.1917 23.4343 16.325 23.8677 16.325C24.0676 16.325 24.2843 16.2917 24.5176 16.225C24.7676 16.1584 25.0009 16.075 25.2176 15.975L25.6676 18.525C25.2176 18.7417 24.6926 18.9084 24.0926 19.025C23.4927 19.1417 22.951 19.2 22.4677 19.2C21.4178 19.2 20.6012 18.925 20.0179 18.375C19.4512 17.8084 19.1679 17.0084 19.1679 15.975V0.750031Z" fill="#2A7AE4"/>
<path d="M31.1268 19.25C29.7769 19.25 28.7519 18.8167 28.052 17.95C27.352 17.0834 27.002 15.8 27.002 14.1V5.90003H30.3519V13.375C30.3519 15.3917 31.0768 16.4 32.5267 16.4C33.1767 16.4 33.8017 16.2084 34.4016 15.825C35.0183 15.425 35.5182 14.825 35.9015 14.025V5.90003H39.2514V15.15C39.2514 15.5 39.3097 15.75 39.4263 15.9C39.5597 16.05 39.768 16.1334 40.0513 16.15V19C39.718 19.0667 39.4347 19.1084 39.2014 19.125C38.9847 19.1417 38.7847 19.15 38.6014 19.15C38.0014 19.15 37.5098 19.0167 37.1265 18.75C36.7598 18.4667 36.5432 18.0834 36.4765 17.6L36.4015 16.55C35.8182 17.45 35.0683 18.125 34.1516 18.575C33.235 19.025 32.2268 19.25 31.1268 19.25Z" fill="#2A7AE4"/>
<path d="M50.3798 8.80003C49.3632 8.8167 48.4549 9.0167 47.655 9.40003C46.855 9.7667 46.2801 10.325 45.9301 11.075V19H42.5803V5.90003H45.6551V8.70003C45.8884 8.25003 46.1634 7.85003 46.48 7.50003C46.7967 7.13337 47.1383 6.8167 47.505 6.55003C47.8716 6.28337 48.2383 6.08337 48.6049 5.95003C48.9882 5.80003 49.3549 5.72503 49.7049 5.72503C49.8882 5.72503 50.0215 5.72503 50.1048 5.72503C50.2048 5.72503 50.2965 5.73337 50.3798 5.75003V8.80003Z" fill="#2A7AE4"/>
<path d="M55.6516 19.25C55.0183 19.25 54.4267 19.15 53.8767 18.95C53.3267 18.7334 52.8518 18.4417 52.4518 18.075C52.0518 17.6917 51.7352 17.25 51.5018 16.75C51.2852 16.25 51.1769 15.7 51.1769 15.1C51.1769 14.4834 51.3102 13.9167 51.5768 13.4C51.8601 12.8667 52.2435 12.4167 52.7268 12.05C53.2267 11.6834 53.8184 11.4 54.5017 11.2C55.185 10.9834 55.9349 10.875 56.7515 10.875C57.3348 10.875 57.9015 10.925 58.4514 11.025C59.0181 11.125 59.518 11.2667 59.9514 11.45V10.7C59.9514 9.83337 59.7014 9.1667 59.2014 8.70003C58.7181 8.23336 57.9931 8.00003 57.0265 8.00003C56.3266 8.00003 55.6433 8.12503 54.9766 8.37503C54.31 8.62503 53.6267 8.9917 52.9268 9.47503L51.9018 7.35003C53.585 6.23336 55.4016 5.67503 57.3515 5.67503C59.2347 5.67503 60.693 6.1417 61.7263 7.07503C62.7762 7.9917 63.3012 9.32503 63.3012 11.075V15.15C63.3012 15.5 63.3595 15.75 63.4762 15.9C63.6095 16.05 63.8178 16.1334 64.1011 16.15V19C63.5345 19.1167 63.0429 19.175 62.6262 19.175C61.9929 19.175 61.5013 19.0334 61.1513 18.75C60.818 18.4667 60.6096 18.0917 60.5263 17.625L60.4513 16.9C59.868 17.6667 59.1597 18.25 58.3265 18.65C57.4932 19.05 56.6015 19.25 55.6516 19.25ZM56.6015 16.8C57.1682 16.8 57.7015 16.7 58.2015 16.5C58.7181 16.3 59.1181 16.0334 59.4014 15.7C59.768 15.4167 59.9514 15.1 59.9514 14.75V13.25C59.5514 13.1 59.1181 12.9834 58.6514 12.9C58.1848 12.8 57.7348 12.75 57.3015 12.75C56.4349 12.75 55.7266 12.95 55.1766 13.35C54.6267 13.7334 54.3517 14.225 54.3517 14.825C54.3517 15.3917 54.5683 15.8667 55.0016 16.25C55.4349 16.6167 55.9683 16.8 56.6015 16.8Z" fill="#2A7AE4"/>
</g>
</g>
</svg>
